<svg width="48" height="48" viewBox="0 0 48 48" fill="none" xmlns="http://www.w3.org/2000/svg">
<rect width="47.9999" height="47.9999" rx="12" fill="#223683"/>
<path d="M31.7499 24C31.7499 24.414 31.4139 24.75 30.9999 24.75H24.75V30.9999C24.75 31.4139 24.414 31.7499 24 31.7499C23.586 31.7499 23.25 31.4139 23.25 30.9999V24.75H17C16.586 24.75 16.25 24.414 16.25 24C16.25 23.586 16.586 23.25 17 23.25H23.25V17C23.25 16.586 23.586 16.25 24 16.25C24.414 16.25 24.75 16.586 24.75 17V23.25H30.9999C31.4139 23.25 31.7499 23.586 31.7499 24Z" fill="white"/>
</svg>
