<svg width="25" height="25" viewBox="0 0 25 25" fill="none" xmlns="http://www.w3.org/2000/svg">
<path d="M9.32855 22.5781C8.61855 22.5781 7.9316 22.35 7.3576 21.913C6.6076 21.341 6.1526 20.4961 6.0866 19.5671C4.7606 19.4771 3.66357 18.6502 3.25457 17.4072C2.91257 16.3702 3.07256 15.283 3.69256 14.425C4.56056 13.225 6.23659 12.7611 7.59759 13.3351C7.88059 13.4571 8.20163 13.3941 8.41363 13.1811L13.1775 8.41717C13.3915 8.20317 13.4446 7.87311 13.3156 7.55511C13.0196 6.82311 13.0015 5.99716 13.2615 5.23016C13.5935 4.25216 14.4226 3.47513 15.4266 3.20013C16.4356 2.92313 17.4805 3.12115 18.2925 3.74115C19.0435 4.31215 19.5006 5.15809 19.5676 6.08709C20.8926 6.17709 21.9896 7.00518 22.3996 8.25018C22.7416 9.28718 22.5816 10.3741 21.9616 11.2321C21.0936 12.4321 19.4166 12.896 18.0566 12.322C17.7756 12.202 17.4525 12.263 17.2405 12.476L12.4766 17.2402C12.2626 17.4542 12.2096 17.784 12.3386 18.102C12.6346 18.834 12.6525 19.6602 12.3925 20.4272C12.0615 21.4052 11.2316 22.182 10.2266 22.457C9.92862 22.537 9.62655 22.5781 9.32855 22.5781ZM6.33062 18.0751C6.66262 18.0751 6.97553 18.2042 7.20953 18.4382C7.44653 18.6752 7.57757 18.992 7.57757 19.33C7.57757 19.879 7.82951 20.3871 8.26751 20.7211C8.71151 21.0601 9.2656 21.162 9.8316 21.009C10.3526 20.866 10.8016 20.448 10.9726 19.945C11.1596 19.397 11.0625 18.946 10.9485 18.665C10.5945 17.792 10.7786 16.8161 11.4166 16.1791L16.1806 11.416C16.8276 10.768 17.7935 10.5821 18.6415 10.9411C19.3715 11.2471 20.2785 11 20.7465 10.353C21.0875 9.88296 21.1686 9.30315 20.9766 8.72015C20.7406 8.00615 20.1245 7.58004 19.3295 7.57904C18.6415 7.57904 18.0796 7.01615 18.0776 6.32415C18.0756 5.77515 17.8236 5.26899 17.3856 4.93499C16.9426 4.59799 16.3875 4.49413 15.8235 4.64813C15.2945 4.79313 14.8566 5.20107 14.6826 5.71307C14.4956 6.26107 14.5926 6.71112 14.7066 6.99212C15.0606 7.86512 14.8766 8.84096 14.2386 9.47796L9.47454 14.2411C8.82654 14.8881 7.85861 15.075 7.01361 14.716C6.28161 14.409 5.37662 14.6561 4.90862 15.3041C4.56762 15.7741 4.48652 16.3539 4.67852 16.9369C4.91352 17.6489 5.53055 18.0751 6.32855 18.0751C6.32855 18.0751 6.32962 18.0751 6.33062 18.0751ZM6.32952 18.8251H6.33953H6.32952Z" fill="#223683"/>
</svg>
