<svg width="25" height="25" viewBox="0 0 25 25" fill="none" xmlns="http://www.w3.org/2000/svg">
<path d="M12.8281 22.5781C8.55513 22.5781 5.07812 19.1011 5.07812 14.8281C5.07812 8.5151 12.0941 3.43111 12.3921 3.21811C12.6531 3.03211 13.0031 3.03211 13.2641 3.21811C13.5621 3.43111 20.5781 8.5151 20.5781 14.8281C20.5781 19.1011 17.1011 22.5781 12.8281 22.5781ZM12.8281 4.77411C11.3431 5.96011 6.57812 10.1301 6.57812 14.8281C6.57812 18.2741 9.38212 21.0781 12.8281 21.0781C16.2741 21.0781 19.0781 18.2741 19.0781 14.8281C19.0781 10.1301 14.3131 5.95911 12.8281 4.77411Z" fill="#223683"/>
</svg>
