<svg width="52" height="52" viewBox="0 0 52 52" fill="none" xmlns="http://www.w3.org/2000/svg">
<rect width="52" height="52" rx="26" fill="white"/>
<path opacity="0.4" d="M19.2175 35.0434H32.7827C35.0436 35.0434 36.174 33.913 36.174 31.6521V21.4782C36.174 19.2173 35.0436 18.0869 32.7827 18.0869H19.2175C16.9566 18.0869 15.8262 19.2173 15.8262 21.4782V31.6521C15.8262 33.913 16.9566 35.0434 19.2175 35.0434Z" fill="#25314C"/>
<path d="M26.0005 27.7115C25.5935 27.7115 25.1843 27.5848 24.8372 27.3328L19.2847 23.2937C18.906 23.019 18.8223 22.4877 19.0981 22.109C19.3728 21.7315 19.9005 21.6455 20.2826 21.9225L25.8354 25.9604C25.9349 26.0316 26.0672 26.0328 26.1666 25.9604L31.7195 21.9225C32.1004 21.6455 32.6293 21.7315 32.904 22.109C33.1798 22.4877 33.0961 23.0179 32.7174 23.2937L27.1649 27.3316C26.8167 27.586 26.4074 27.7115 26.0005 27.7115Z" fill="#25314C"/>
</svg>
