<svg width="32" height="32" viewBox="0 0 32 32" fill="none" xmlns="http://www.w3.org/2000/svg">
<path d="M28.314 13.5172C26.5633 10.5852 22.6338 5.66663 16.0005 5.66663C9.36714 5.66663 5.43767 10.5852 3.687 13.5172C2.771 15.0479 2.771 16.9507 3.687 18.4827C5.43767 21.4147 9.36714 26.3333 16.0005 26.3333C22.6338 26.3333 26.5633 21.4147 28.314 18.4827C29.23 16.9507 29.23 15.0492 28.314 13.5172ZM26.5978 17.456C25.0645 20.024 21.6471 24.3333 16.0005 24.3333C10.3538 24.3333 6.93648 20.0253 5.40315 17.456C4.86715 16.5573 4.86715 15.4413 5.40315 14.5426C6.93648 11.9746 10.3538 7.66532 16.0005 7.66532C21.6471 7.66532 25.0645 11.9733 26.5978 14.5426C27.1351 15.4426 27.1351 16.5573 26.5978 17.456ZM16.0005 10.3333C12.8751 10.3333 10.3338 12.876 10.3338 16C10.3338 19.124 12.8751 21.6666 16.0005 21.6666C19.1258 21.6666 21.6671 19.124 21.6671 16C21.6671 12.876 19.1258 10.3333 16.0005 10.3333ZM16.0005 19.6666C13.9778 19.6666 12.3338 18.0226 12.3338 16C12.3338 13.9773 13.9778 12.3333 16.0005 12.3333C18.0231 12.3333 19.6671 13.9773 19.6671 16C19.6671 18.0226 18.0231 19.6666 16.0005 19.6666Z" fill="currentColor"/>
</svg>
