<svg width="32" height="32" viewBox="0 0 32 32" fill="none" xmlns="http://www.w3.org/2000/svg">
<path d="M29.0003 10.6374C29.0003 8.59737 28.2057 6.67997 26.763 5.2373C25.3204 3.79464 23.403 3 21.363 3C19.323 3 17.4044 3.79464 15.9631 5.2373L5.23633 15.9639C3.79366 17.4065 2.99902 19.3239 2.99902 21.3639C2.99902 23.4039 3.79366 25.3213 5.23633 26.764C6.67766 28.2067 8.59639 29.0013 10.6364 29.0013C12.6764 29.0013 14.595 28.2067 16.0363 26.764L21.3843 21.416C21.3976 21.404 21.4136 21.4 21.4269 21.388C21.4403 21.376 21.4429 21.3587 21.4549 21.3454L26.763 16.0374C28.2057 14.5948 29.0003 12.676 29.0003 10.6374ZM14.623 25.3493C13.5577 26.4133 12.143 27 10.6377 27C9.13236 27 7.71768 26.4133 6.65234 25.3493C5.58701 24.284 5.00163 22.8693 5.00163 21.3639C5.00163 19.8586 5.58701 18.4439 6.65234 17.3786L11.3283 12.7028L19.3003 20.6732L14.623 25.3493ZM20.7137 19.2588L12.7417 11.2881L17.3776 6.65202C18.4429 5.58802 19.8576 5.0013 21.363 5.0013C22.8683 5.0013 24.283 5.58802 25.3483 6.65202C26.4136 7.71735 26.999 9.13204 26.999 10.6374C26.999 12.1427 26.4136 13.5574 25.3483 14.6227L20.7137 19.2588ZM10.8324 16.3574C11.223 16.7481 11.223 17.3815 10.8324 17.7721L9.81901 18.7855C8.93901 19.6668 8.50432 20.884 8.62565 22.1266C8.68032 22.6773 8.27769 23.1654 7.72835 23.2201C7.69635 23.2227 7.66172 23.224 7.62972 23.224C7.12172 23.224 6.68706 22.8386 6.63639 22.3226C6.45373 20.4813 7.09896 18.6761 8.4043 17.3708L9.41764 16.3574C9.80831 15.9668 10.4417 15.9668 10.8324 16.3574Z" fill="currentColor"/>
</svg>
