<svg width="25" height="25" viewBox="0 0 25 25" fill="none" xmlns="http://www.w3.org/2000/svg">
<path d="M19.8281 22.5781H16.3281C15.6391 22.5781 15.0781 22.0171 15.0781 21.3281V19.8281C15.0781 19.1391 14.5171 18.5781 13.8281 18.5781C13.1391 18.5781 12.5781 19.1391 12.5781 19.8281V21.3281C12.5781 22.0171 12.0171 22.5781 11.3281 22.5781H8.82812C7.31113 22.5781 6.07812 21.3441 6.07812 19.8281V17.5781H4.82812C3.31113 17.5781 2.07812 16.3441 2.07812 14.8281C2.07812 13.3121 3.31113 12.0781 4.82812 12.0781H6.07812V9.82812C6.07812 8.31212 7.31113 7.07812 8.82812 7.07812H11.0781V5.82812C11.0781 4.31212 12.3111 3.07812 13.8281 3.07812C15.3451 3.07812 16.5781 4.31212 16.5781 5.82812V7.07812H19.8281C21.3451 7.07812 22.5781 8.31212 22.5781 9.82812V12.3281C22.5781 13.0171 22.0171 13.5781 21.3281 13.5781H19.8281C19.1391 13.5781 18.5781 14.1391 18.5781 14.8281C18.5781 15.5171 19.1391 16.0781 19.8281 16.0781H21.3281C22.0171 16.0781 22.5781 16.6391 22.5781 17.3281V19.8281C22.5781 21.3441 21.3451 22.5781 19.8281 22.5781ZM16.5781 21.0781H19.8281C20.5171 21.0781 21.0781 20.5171 21.0781 19.8281V17.5781H19.8281C18.3111 17.5781 17.0781 16.3441 17.0781 14.8281C17.0781 13.3121 18.3111 12.0781 19.8281 12.0781H21.0781V9.82812C21.0781 9.13912 20.5171 8.57812 19.8281 8.57812H16.3281C15.6391 8.57812 15.0781 8.01713 15.0781 7.32812V5.82812C15.0781 5.13912 14.5171 4.57812 13.8281 4.57812C13.1391 4.57812 12.5781 5.13912 12.5781 5.82812V7.32812C12.5781 8.01713 12.0171 8.57812 11.3281 8.57812H8.82812C8.13912 8.57812 7.57812 9.13912 7.57812 9.82812V12.3281C7.57812 13.0171 7.01713 13.5781 6.32812 13.5781H4.82812C4.13912 13.5781 3.57812 14.1391 3.57812 14.8281C3.57812 15.5171 4.13912 16.0781 4.82812 16.0781H6.32812C7.01713 16.0781 7.57812 16.6391 7.57812 17.3281V19.8281C7.57812 20.5171 8.13912 21.0781 8.82812 21.0781H11.0781V19.8281C11.0781 18.3121 12.3111 17.0781 13.8281 17.0781C15.3451 17.0781 16.5781 18.3121 16.5781 19.8281V21.0781Z" fill="currentColor"/>
</svg>
