<svg width="25" height="25" viewBox="0 0 25 25" fill="none" xmlns="http://www.w3.org/2000/svg">
<path d="M9.95312 8.89313C10.3461 8.30013 10.5781 7.59113 10.5781 6.82812C10.5781 4.76012 8.89613 3.07812 6.82812 3.07812C4.76012 3.07812 3.07812 4.76012 3.07812 6.82812C3.07812 8.89613 4.76012 10.5781 6.82812 10.5781C7.59113 10.5781 8.30013 10.3461 8.89313 9.95312L11.7681 12.8281L8.89313 15.7031C8.30013 15.3101 7.59113 15.0781 6.82812 15.0781C4.76012 15.0781 3.07812 16.7601 3.07812 18.8281C3.07812 20.8961 4.76012 22.5781 6.82812 22.5781C8.89613 22.5781 10.5781 20.8961 10.5781 18.8281C10.5781 18.0651 10.3461 17.3561 9.95312 16.7631L12.8281 13.8881L20.2981 21.3581C20.4441 21.5041 20.6361 21.5781 20.8281 21.5781C21.0201 21.5781 21.2122 21.5051 21.3582 21.3581C21.6512 21.0651 21.6512 20.5901 21.3582 20.2971L9.95312 8.89313ZM6.82812 21.0781C5.58712 21.0781 4.57812 20.0691 4.57812 18.8281C4.57812 17.5871 5.58712 16.5781 6.82812 16.5781C7.44813 16.5781 8.00911 16.8301 8.41711 17.2361C8.41711 17.2361 8.41815 17.2371 8.41815 17.2381C8.41815 17.2391 8.4191 17.2391 8.4201 17.2391C8.8271 17.6461 9.07812 18.2081 9.07812 18.8281C9.07812 20.0691 8.06913 21.0781 6.82812 21.0781ZM4.57812 6.82812C4.57812 5.58712 5.58712 4.57812 6.82812 4.57812C8.06913 4.57812 9.07812 5.58712 9.07812 6.82812C9.07812 7.44813 8.8261 8.00911 8.4201 8.41711C8.4201 8.41711 8.41915 8.41812 8.41815 8.41812C8.41715 8.41812 8.41711 8.41914 8.41711 8.42014C8.01011 8.82614 7.44813 9.07812 6.82812 9.07812C5.58712 9.07812 4.57812 8.06913 4.57812 6.82812ZM14.7981 10.8581C14.5051 10.5651 14.5051 10.0901 14.7981 9.79712L20.2981 4.29712C20.5911 4.00412 21.0661 4.00412 21.3591 4.29712C21.6521 4.59012 21.6521 5.06512 21.3591 5.35812L15.8591 10.8581C15.7131 11.0041 15.5211 11.0781 15.3291 11.0781C15.1371 11.0781 14.9441 11.0051 14.7981 10.8581Z" fill="currentColor"/>
</svg>
