<svg width="32" height="32" viewBox="0 0 32 32" fill="#223683" xmlns="http://www.w3.org/2000/svg">
<path d="M15.9991 10.9999C13.2418 10.9999 10.9991 13.2425 10.9991 15.9999C10.9991 18.7572 13.2418 20.9999 15.9991 20.9999C18.7564 20.9999 20.9991 18.7572 20.9991 15.9999C20.9991 13.2425 18.7564 10.9999 15.9991 10.9999ZM15.9991 18.9999C14.3444 18.9999 12.9991 17.6545 12.9991 15.9999C12.9991 14.3452 14.3444 12.9999 15.9991 12.9999C17.6538 12.9999 18.9991 14.3452 18.9991 15.9999C18.9991 17.6545 17.6538 18.9999 15.9991 18.9999ZM28.2764 18.6039C27.3511 18.0679 26.7751 17.0705 26.7737 15.9999C26.7724 14.9319 27.3444 13.9359 28.2818 13.3932C28.9684 12.9946 29.2031 12.1105 28.8058 11.4225L26.5764 7.57454C26.1791 6.88788 25.2951 6.65189 24.6071 7.04789C23.6751 7.58523 22.5164 7.58523 21.5818 7.04256C20.6604 6.5079 20.0871 5.51455 20.0871 4.44922C20.0871 3.65055 19.4364 3.00122 18.6378 3.00122H13.3644C12.5644 3.00122 11.9151 3.65055 11.9151 4.44922C11.9151 5.51455 11.3417 6.50787 10.4177 7.04521C9.48574 7.58521 8.32842 7.58653 7.39642 7.04919C6.70709 6.65186 5.82444 6.88922 5.4271 7.57589L3.19509 11.4279C2.79775 12.1146 3.03374 12.9972 3.72707 13.3999C4.65107 13.9345 5.22709 14.9305 5.22976 15.9985C5.23242 17.0679 4.65908 18.0665 3.72308 18.6092C3.38975 18.8025 3.14975 19.1132 3.05109 19.4865C2.95242 19.8585 3.0031 20.2466 3.19643 20.5812L5.42442 24.4266C5.82175 25.1146 6.70576 25.3532 7.39642 24.9545C8.32842 24.4172 9.48443 24.4186 10.4031 24.9506L10.4057 24.9519C10.4097 24.9545 10.4138 24.9572 10.4191 24.9599C11.3404 25.4945 11.9124 26.4879 11.9111 27.5545C11.9111 28.3532 12.5604 29.0026 13.3591 29.0026H18.6378C19.4364 29.0026 20.0858 28.3532 20.0858 27.5559C20.0858 26.4892 20.6591 25.4959 21.5844 24.9585C22.5151 24.4185 23.6724 24.4159 24.6057 24.9545C25.2937 25.3519 26.1764 25.1159 26.5751 24.4292L28.8071 20.5772C29.2031 19.8879 28.9671 19.0039 28.2764 18.6039ZM25.1071 22.9692C23.6537 22.3359 21.9671 22.4226 20.5777 23.2266C19.2004 24.0252 18.2911 25.4372 18.1151 26.9999H13.8791C13.7058 25.4372 12.7937 24.0226 11.4164 23.2252C10.0297 22.4212 8.34043 22.3359 6.89109 22.9692L5.18976 20.0319C6.46309 19.0945 7.2324 17.5906 7.22707 15.9906C7.22307 14.4012 6.45508 12.9079 5.18842 11.9705L6.89109 9.03186C8.34176 9.66386 10.0311 9.57853 11.4204 8.77319C12.7964 7.97586 13.7057 6.56255 13.8817 5.00122H18.1151C18.2898 6.56389 19.2004 7.97588 20.5804 8.77588C21.9658 9.57988 23.6551 9.6652 25.1071 9.0332L26.8098 11.9705C25.5391 12.9065 24.7711 14.4079 24.7737 16.0052C24.7751 17.5972 25.5431 19.0932 26.8111 20.0332L25.1071 22.9692Z" />
</svg>
