<svg width="25" height="25" viewBox="0 0 25 25" fill="none" xmlns="http://www.w3.org/2000/svg">
<path d="M18.318 13.0781L15.988 7.86805C15.758 7.35805 15.198 7.05807 14.638 7.14807C10.978 7.73807 10.388 5.48806 9.99796 3.99806L9.91801 3.69806C9.87801 3.54806 9.71801 3.17806 9.16801 3.08806C8.45801 2.96806 7.33796 3.36806 6.55796 4.51806L2.49796 10.8481C1.72796 12.0581 2.01801 13.6681 3.16801 14.5281L13.148 22.0181C13.618 22.3681 14.2079 22.5681 14.7979 22.5681H21.318C22.558 22.5681 23.568 21.5581 23.568 20.3181V18.4981C23.568 15.5581 21.218 13.1581 18.308 13.0781H18.318ZM7.82798 5.34807C8.09798 4.93807 8.40797 4.73807 8.62797 4.64807C9.03797 6.15807 10.138 9.30806 14.698 8.65806L14.998 9.31807H12.838C12.428 9.31807 12.088 9.65807 12.088 10.0681C12.088 10.4781 12.428 10.8181 12.838 10.8181H15.678L16.128 11.8181H13.848C13.438 11.8181 13.098 12.1581 13.098 12.5681C13.098 12.9781 13.438 13.3181 13.848 13.3181H16.7979L17.028 13.8281C17.228 14.2781 17.678 14.5681 18.168 14.5681C20.188 14.5681 21.838 16.1081 22.048 18.0681H15.818C15.548 18.0681 15.288 17.9781 15.068 17.8181L4.788 10.1081L7.83799 5.34807H7.82798ZM21.338 21.0781H14.818C14.548 21.0781 14.278 20.9881 14.068 20.8281L4.08799 13.3381C3.56799 12.9481 3.438 12.2081 3.788 11.6681L3.96799 11.3781L14.158 19.0281C14.628 19.3781 15.218 19.5781 15.808 19.5781H22.078V20.3281C22.078 20.7381 21.738 21.0781 21.328 21.0781H21.338ZM10.588 21.8281C10.588 22.2381 10.248 22.5781 9.83799 22.5781H2.83799C2.42799 22.5781 2.08799 22.2381 2.08799 21.8281C2.08799 21.4181 2.42799 21.0781 2.83799 21.0781H9.83799C10.248 21.0781 10.588 21.4181 10.588 21.8281ZM2.08799 18.3281C2.08799 17.9181 2.42799 17.5781 2.83799 17.5781H4.83799C5.24799 17.5781 5.58799 17.9181 5.58799 18.3281C5.58799 18.7381 5.24799 19.0781 4.83799 19.0781H2.83799C2.42799 19.0781 2.08799 18.7381 2.08799 18.3281Z" fill="currentColor"/>
</svg>
