<svg width="32" height="32" viewBox="0 0 32 32" fill="none" xmlns="http://www.w3.org/2000/svg">
<path d="M28.314 13.5173C26.5633 10.5853 22.6338 5.66675 16.0005 5.66675C9.36714 5.66675 5.43767 10.5853 3.687 13.5173C2.771 15.048 2.771 16.9508 3.687 18.4828C5.43767 21.4148 9.36714 26.3334 16.0005 26.3334C22.6338 26.3334 26.5633 21.4148 28.314 18.4828C29.23 16.9508 29.23 15.0493 28.314 13.5173ZM26.5978 17.4561C25.0645 20.0241 21.6471 24.3334 16.0005 24.3334C10.3538 24.3334 6.93648 20.0255 5.40315 17.4561C4.86715 16.5575 4.86715 15.4414 5.40315 14.5427C6.93648 11.9747 10.3538 7.66545 16.0005 7.66545C21.6471 7.66545 25.0645 11.9734 26.5978 14.5427C27.1351 15.4427 27.1351 16.5575 26.5978 17.4561ZM16.0005 10.3334C12.8751 10.3334 10.3338 12.8761 10.3338 16.0001C10.3338 19.1241 12.8751 21.6667 16.0005 21.6667C19.1258 21.6667 21.6671 19.1241 21.6671 16.0001C21.6671 12.8761 19.1258 10.3334 16.0005 10.3334ZM16.0005 19.6667C13.9778 19.6667 12.3338 18.0227 12.3338 16.0001C12.3338 13.9774 13.9778 12.3334 16.0005 12.3334C18.0231 12.3334 19.6671 13.9774 19.6671 16.0001C19.6671 18.0227 18.0231 19.6667 16.0005 19.6667Z" fill="currentColor"/>
</svg>
