<svg width="25" height="25" viewBox="0 0 25 25" fill="none" xmlns="http://www.w3.org/2000/svg">
<path d="M8.57812 13.8281C8.57812 15.6201 10.0361 17.0781 11.8281 17.0781C13.3131 17.0781 14.6061 16.077 14.9721 14.643C15.0741 14.241 15.4891 13.999 15.8831 14.101C16.2851 14.204 16.5281 14.6121 16.4251 15.0131C15.8911 17.1121 14.0001 18.5781 11.8281 18.5781C9.20913 18.5781 7.07812 16.4471 7.07812 13.8281C7.07812 11.6551 8.54413 9.76513 10.6431 9.23113C11.0401 9.13113 11.4531 9.37112 11.5541 9.77312C11.6571 10.1741 11.4131 10.583 11.0121 10.685C9.57915 11.049 8.57812 12.3421 8.57812 13.8281ZM19.7131 12.5431C19.3021 12.5901 19.0061 12.961 19.0531 13.373C19.0711 13.525 19.0781 13.6761 19.0781 13.8281C19.0781 17.8261 15.8261 21.0781 11.8281 21.0781C7.83013 21.0781 4.57812 17.8261 4.57812 13.8281C4.57812 9.83005 7.83013 6.57805 11.8281 6.57805C11.9801 6.57805 12.1331 6.58595 12.2851 6.60295C12.7071 6.64795 13.0681 6.35211 13.1131 5.94011C13.1591 5.52811 12.8631 5.15701 12.4511 5.11101C12.2441 5.08801 12.0351 5.07707 11.8281 5.07707C7.00313 5.07707 3.07812 9.00207 3.07812 13.8271C3.07812 18.6521 7.00313 22.5771 11.8281 22.5771C16.6531 22.5771 20.5781 18.6521 20.5781 13.8271C20.5781 13.6191 20.5662 13.4101 20.5432 13.2021C20.4962 12.7911 20.1331 12.4971 19.7131 12.5431ZM22.3582 8.35808L19.7971 10.9191C19.3781 11.3381 18.7981 11.5781 18.2061 11.5781H15.1381L12.3582 14.3581C12.2122 14.5041 12.0201 14.5781 11.8281 14.5781C11.6361 14.5781 11.4441 14.5051 11.2981 14.3581C11.0051 14.0651 11.0051 13.59 11.2981 13.297L14.0781 10.517V7.44914C14.0781 6.85714 14.3181 6.27708 14.7371 5.85808L17.2981 3.29704C17.5131 3.08204 17.8351 3.01796 18.1151 3.13396C18.3951 3.24996 18.5781 3.52407 18.5781 3.82707V7.07707H21.8281C22.1321 7.07707 22.4051 7.25996 22.5211 7.53996C22.6371 7.82096 22.5732 8.14408 22.3582 8.35808ZM15.5781 7.44914V9.01702L17.0781 7.51702V5.63811L15.7981 6.91814C15.6581 7.05814 15.5781 7.25214 15.5781 7.44914ZM20.0172 8.57805H18.1381L16.6381 10.0781H18.2061C18.4031 10.0781 18.5971 9.99808 18.7361 9.85808L20.0172 8.57805Z" fill="currentColor"/>
</svg>
