<svg width="25" height="25" viewBox="0 0 25 25" fill="none" xmlns="http://www.w3.org/2000/svg">
<path d="M16.2733 22.5781C14.0113 22.5781 13.6533 20.2292 13.3903 18.5142C13.2943 17.8862 13.0953 16.5781 12.8283 16.5781C12.5613 16.5781 12.3613 17.8852 12.2663 18.5142C12.0033 20.2292 11.6454 22.5781 9.38336 22.5781C7.67436 22.5781 7.21937 20.5842 6.73737 18.4722C6.41137 17.0422 6.04236 15.4222 5.30036 14.2222C3.78136 11.7662 3.66435 8.36019 5.01435 5.94019C6.04235 4.09419 7.76933 3.07812 9.87433 3.07812C11.1033 3.07812 12.2183 3.43213 13.1433 4.10913C13.7843 3.43913 14.6933 3.07812 15.7813 3.07812C17.8863 3.07812 19.6133 4.09419 20.6413 5.94019C21.9913 8.36019 21.8733 11.7661 20.3553 14.2231C19.6143 15.4231 19.2453 17.0431 18.9183 18.4731C18.4373 20.5841 17.9823 22.5781 16.2733 22.5781ZM12.8283 15.0781C14.3843 15.0781 14.6433 16.7831 14.8743 18.2871C15.1693 20.2171 15.4403 21.0781 16.2733 21.0781C16.7863 21.0781 17.1584 19.4482 17.4564 18.1392C17.8094 16.5962 18.2073 14.8461 19.0803 13.4341C20.3063 11.4511 20.4113 8.60617 19.3323 6.67017C18.8003 5.71517 17.7523 4.57812 15.7813 4.57812C15.0963 4.57812 14.5833 4.76519 14.2233 5.14819C14.6403 5.65819 14.9173 6.1482 15.0883 6.5022C15.2683 6.8752 15.1113 7.32317 14.7383 7.50317C14.3613 7.68217 13.9173 7.52508 13.7363 7.15308C13.5633 6.79408 13.2493 6.25608 12.7383 5.73608C12.7373 5.73508 12.7373 5.73413 12.7363 5.73413C11.9803 4.96713 11.0173 4.57812 9.87433 4.57812C7.90333 4.57812 6.85531 5.71617 6.32331 6.67017C5.24431 8.60617 5.34926 11.4501 6.57526 13.4331C7.44826 14.8451 7.84628 16.5952 8.19928 18.1382C8.49728 19.4482 8.86927 21.0771 9.38227 21.0771C10.2153 21.0771 10.4863 20.2161 10.7813 18.2861C11.0133 16.7831 11.2723 15.0781 12.8283 15.0781Z" fill="currentColor"/>
</svg>
