<svg width="32" height="32" viewBox="0 0 32 32" fill="none" xmlns="http://www.w3.org/2000/svg">
<path d="M28.7067 8.92264L27.3 7.51606L23.0773 3.29471C22.6867 2.90404 22.0533 2.90404 21.6626 3.29471C21.272 3.68538 21.272 4.31876 21.6626 4.70942L22.3627 5.40929L19.556 8.21756L18.856 7.51737C18.856 7.51737 18.8547 7.5174 18.8547 7.51606L17.8 6.46138C17.4093 6.07071 16.776 6.07071 16.3853 6.46138C15.9946 6.85204 15.9946 7.48542 16.3853 7.87609L16.7334 8.22407L8.62536 16.3321C8.58802 16.3695 8.56272 16.4081 8.52672 16.4454C8.51606 16.4548 8.50272 16.4589 8.49206 16.4682C8.47072 16.4882 8.46401 16.5162 8.44534 16.5375C7.48668 17.5629 6.96539 18.6349 6.92939 19.7309C6.89739 20.7162 7.25607 21.6813 7.97073 22.616L3.29202 27.2947C2.90136 27.6854 2.90136 28.3188 3.29202 28.7094C3.48669 28.9041 3.74273 29.0027 3.99873 29.0027C4.25473 29.0027 4.51077 28.9054 4.70544 28.7094L9.38268 24.032C10.2853 24.7227 11.216 25.0789 12.1467 25.0789C13.34 25.0789 14.5334 24.5108 15.6708 23.3761L23.7761 15.268L24.1254 15.6173C24.32 15.812 24.5761 15.9109 24.8321 15.9109C25.0881 15.9109 25.3441 15.8133 25.5388 15.6173C25.9294 15.2266 25.9294 14.5936 25.5388 14.2029L24.4828 13.1469L23.7827 12.4467L26.5907 9.63878L27.2907 10.3387C27.4854 10.5333 27.7414 10.6323 27.9974 10.6323C28.2534 10.6323 28.5093 10.5347 28.704 10.3387C29.0973 9.94532 29.0974 9.31331 28.7067 8.92264ZM14.2561 21.9588C12.7801 23.4361 11.5161 23.4361 10.0401 21.9588C9.28274 21.2001 8.90803 20.4721 8.9307 19.7921C8.9427 19.4361 9.07206 19.064 9.29739 18.684L10.6387 20.0268C10.8334 20.2215 11.0894 20.3201 11.3454 20.3201C11.6001 20.3201 11.8573 20.2228 12.052 20.0268C12.4426 19.6375 12.4426 19.0028 12.052 18.6121L10.6107 17.1707L12.016 15.7654L13.4507 17.2C13.6454 17.3947 13.9014 17.4936 14.1574 17.4936C14.4134 17.4936 14.6693 17.396 14.864 17.2C15.2546 16.8093 15.2546 16.1763 14.864 15.7856L13.4294 14.3507L14.836 12.9441L16.2774 14.3855C16.472 14.5802 16.7281 14.6788 16.9841 14.6788C17.2401 14.6788 17.496 14.5815 17.6906 14.3855C18.0813 13.9949 18.0813 13.3615 17.6906 12.9708L16.2494 11.5294L18.1454 9.63358L21.6587 13.1469C21.6587 13.1469 21.6587 13.1482 21.66 13.1482C21.6614 13.1482 21.6613 13.1482 21.6613 13.1495L22.3601 13.8481L14.2561 21.9588ZM22.3706 11.0294L20.9707 9.62934L23.7787 6.8214L25.18 8.22147L22.3706 11.0294Z" fill="currentColor"/>
</svg>
