<svg width="32" height="32" viewBox="0 0 32 32" fill="none" xmlns="http://www.w3.org/2000/svg">
<path d="M23.5 3H8.5C4.95333 3 3 4.95333 3 8.5V23.5C3 27.0467 4.95333 29 8.5 29H23.5C27.0467 29 29 27.0467 29 23.5V8.5C29 4.95333 27.0467 3 23.5 3ZM27 23.5C27 25.9533 25.9533 27 23.5 27H8.5C6.04667 27 5 25.9533 5 23.5V8.5C5 6.04667 6.04667 5 8.5 5H23.5C25.9533 5 27 6.04667 27 8.5V23.5ZM21 10.6667V21.3333C21 21.8853 20.552 22.3333 20 22.3333C19.448 22.3333 19 21.8853 19 21.3333V17H13V21.3333C13 21.8853 12.552 22.3333 12 22.3333C11.448 22.3333 11 21.8853 11 21.3333V10.6667C11 10.1147 11.448 9.66667 12 9.66667C12.552 9.66667 13 10.1147 13 10.6667V15H19V10.6667C19 10.1147 19.448 9.66667 20 9.66667C20.552 9.66667 21 10.1147 21 10.6667Z" fill="currentColor"/>
</svg>
