<svg width="32" height="32" viewBox="0 0 32 32" fill="none" xmlns="http://www.w3.org/2000/svg">
<path d="M24 3H8C4.77333 3 3 4.77333 3 8V24C3 27.2267 4.77333 29 8 29H24C27.2267 29 29 27.2267 29 24V8C29 4.77333 27.2267 3 24 3ZM27 24C27 26.1067 26.1067 27 24 27H8C5.89333 27 5 26.1067 5 24V8C5 5.89333 5.89333 5 8 5H24C26.1067 5 27 5.89333 27 8V24ZM8.94667 23.0533C9.18667 23.3067 9.33333 23.64 9.33333 24C9.33333 24.1733 9.29333 24.3467 9.22666 24.5067C9.16 24.68 9.06667 24.8267 8.94667 24.9467C8.69333 25.1867 8.34667 25.3333 8 25.3333C7.65333 25.3333 7.30667 25.1867 7.05333 24.9467C6.81333 24.6933 6.66667 24.3467 6.66667 24C6.66667 23.92 6.66667 23.8267 6.69333 23.7333C6.69333 23.6533 6.73334 23.5733 6.77334 23.4933C6.8 23.4133 6.84 23.3333 6.89333 23.2533C6.93333 23.1867 7 23.12 7.05333 23.0533C7.54667 22.56 8.44 22.56 8.94667 23.0533ZM24.9467 23.0533C25.1867 23.3067 25.3333 23.6533 25.3333 24C25.3333 24.3467 25.1867 24.6933 24.9467 24.9467C24.8133 25.0667 24.68 25.16 24.5067 25.2267C24.3467 25.2933 24.1733 25.3333 24 25.3333C23.6533 25.3333 23.3067 25.1867 23.0533 24.9467C22.8133 24.6933 22.6667 24.3467 22.6667 24C22.6667 23.6533 22.8133 23.3067 23.0533 23.0533C23.4267 22.68 24.0267 22.5733 24.5067 22.7733C24.68 22.84 24.8133 22.9333 24.9467 23.0533ZM22.48 8.64C18.5333 6.50667 13.4667 6.50667 9.50667 8.64C8.46667 9.2 8.04 10.4667 8.53334 11.52L10.0133 14.7067C10.28 15.2933 10.88 15.6667 11.52 15.6667H20.4533C21.0933 15.6667 21.6933 15.2933 21.96 14.7067L23.44 11.52C23.9333 10.4667 23.5067 9.2 22.4667 8.64H22.48ZM21.64 10.68L20.2533 13.6667H17V11.3333C17 10.7867 16.5467 10.3333 16 10.3333C15.4533 10.3333 15 10.7867 15 11.3333V13.6667H11.7467L10.36 10.68C10.3067 10.5733 10.3867 10.4533 10.48 10.4C13.8533 8.57333 18.1733 8.57333 21.5467 10.4C21.64 10.4533 21.72 10.5733 21.6667 10.68H21.64Z" fill="#7286D3"/>
</svg>
